# Blender 5.0.0
# www.blender.org
mtllib spark.mtl
o Cone
v 0.000000 1.000000 -0.235324
v 0.195090 0.980785 -0.235324
v 0.382683 0.923880 -0.235324
v 0.555570 0.831470 -0.235324
v 0.707107 0.707107 -0.235324
v 0.831470 0.555570 -0.235324
v 0.923880 0.382683 -0.235324
v 0.980785 0.195090 -0.235324
v 1.000000 0.000000 -0.235324
v 0.980785 -0.195090 -0.235324
v 0.923880 -0.382683 -0.235324
v 0.831470 -0.555570 -0.235324
v 0.707107 -0.707107 -0.235324
v 0.555570 -0.831470 -0.235324
v 0.382683 -0.923880 -0.235324
v 0.195090 -0.980785 -0.235324
v 0.000000 -1.000000 -0.235324
v -0.195090 -0.980785 -0.235324
v -0.382683 -0.923880 -0.235324
v -0.555570 -0.831470 -0.235324
v -0.707107 -0.707107 -0.235324
v -0.831470 -0.555570 -0.235324
v -0.923880 -0.382683 -0.235324
v -0.980785 -0.195090 -0.235324
v -1.000000 0.000000 -0.235324
v -0.980785 0.195090 -0.235324
v -0.923880 0.382683 -0.235324
v -0.831470 0.555570 -0.235324
v -0.707107 0.707107 -0.235324
v -0.555570 0.831470 -0.235324
v -0.382683 0.923880 -0.235324
v -0.195090 0.980785 -0.235324
v -0.631338 -0.769288 -0.235324
v 0.769288 -0.631338 -0.235324
v -0.028377 0.142662 0.000000
v -0.055664 0.134385 0.000000
v -0.080812 0.120943 0.000000
v -0.102854 0.102854 0.000000
v -0.120943 0.080812 0.000000
v -0.134385 0.055664 0.000000
v -0.142662 0.028377 0.000000
v -0.145457 0.000000 0.000000
v -0.142662 -0.028377 0.000000
v -0.134385 -0.055664 0.000000
v -0.120943 -0.080812 0.000000
v -0.102854 -0.102854 0.000000
v -0.080812 -0.120943 0.000000
v -0.055664 -0.134385 0.000000
v -0.028377 -0.142662 0.000000
v 0.000000 -0.145457 0.000000
v 0.028377 -0.142662 0.000000
v 0.055664 -0.134385 0.000000
v 0.080812 -0.120943 0.000000
v 0.102854 -0.102854 0.000000
v 0.120943 -0.080812 0.000000
v 0.134385 -0.055664 0.000000
v 0.142662 -0.028377 0.000000
v 0.145457 0.000000 0.000000
v 0.142662 0.028377 0.000000
v 0.134385 0.055664 0.000000
v 0.120943 0.080812 0.000000
v 0.102854 0.102854 0.000000
v 0.080812 0.120943 0.000000
v 0.055664 0.134385 0.000000
v 0.028377 0.142662 0.000000
v 0.000000 0.145457 0.000000
vn -0.0000 0.2655 0.9641
vn 0.0518 0.2604 0.9641
vn 0.1016 0.2453 0.9641
vn 0.1475 0.2208 0.9641
vn 0.1877 0.1877 0.9641
vn 0.2208 0.1475 0.9641
vn 0.2453 0.1016 0.9641
vn 0.2604 0.0518 0.9641
vn 0.2655 -0.0000 0.9641
vn 0.2604 -0.0518 0.9641
vn 0.2453 -0.1016 0.9641
vn 0.2208 -0.1475 0.9641
vn 0.1877 -0.1877 0.9641
vn 0.1475 -0.2208 0.9641
vn 0.1016 -0.2453 0.9641
vn 0.0518 -0.2604 0.9641
vn -0.0000 -0.2655 0.9641
vn -0.0518 -0.2604 0.9641
vn -0.1016 -0.2453 0.9641
vn -0.1475 -0.2208 0.9641
vn -0.1877 -0.1877 0.9641
vn -0.2208 -0.1475 0.9641
vn -0.2453 -0.1016 0.9641
vn -0.2604 -0.0518 0.9641
vn -0.2655 -0.0000 0.9641
vn -0.2604 0.0518 0.9641
vn -0.2453 0.1016 0.9641
vn -0.2208 0.1475 0.9641
vn -0.1877 0.1877 0.9641
vn -0.1475 0.2208 0.9641
vn -0.1016 0.2453 0.9641
vn -0.0518 0.2604 0.9641
vn -0.1692 -0.2062 0.9638
vn 0.2062 -0.1692 0.9638
vt 0.402455 0.990393
vt 0.485811 0.571331
vt 0.500000 0.572729
vt 0.500000 1.000000
vt 0.514189 0.571331
vt 0.597545 0.990393
vt 0.527832 0.567192
vt 0.691342 0.961940
vt 0.540406 0.560472
vt 0.777785 0.915735
vt 0.551427 0.551427
vt 0.853553 0.853553
vt 0.560472 0.540406
vt 0.915735 0.777785
vt 0.567192 0.527832
vt 0.961940 0.691342
vt 0.571331 0.514189
vt 0.990393 0.597545
vt 0.572729 0.500000
vt 1.000000 0.500000
vt 0.571331 0.485811
vt 0.990393 0.402455
vt 0.567192 0.472168
vt 0.961940 0.308658
vt 0.560472 0.459594
vt 0.915735 0.222215
vt 0.551427 0.448573
vt 0.853553 0.146447
vt 0.884644 0.184331
vt 0.540406 0.439529
vt 0.777785 0.084265
vt 0.527832 0.432808
vt 0.691342 0.038060
vt 0.514189 0.428669
vt 0.597545 0.009607
vt 0.500000 0.427272
vt 0.500000 0.000000
vt 0.485811 0.428669
vt 0.402455 0.009607
vt 0.472168 0.432808
vt 0.308658 0.038060
vt 0.459594 0.439528
vt 0.222215 0.084265
vt 0.448573 0.448573
vt 0.146447 0.146447
vt 0.184331 0.115356
vt 0.439529 0.459594
vt 0.084265 0.222215
vt 0.432808 0.472168
vt 0.038060 0.308658
vt 0.428669 0.485811
vt 0.009607 0.402455
vt 0.427272 0.500000
vt 0.000000 0.500000
vt 0.428669 0.514189
vt 0.009607 0.597545
vt 0.432808 0.527832
vt 0.038060 0.691342
vt 0.439528 0.540406
vt 0.084265 0.777785
vt 0.448573 0.551427
vt 0.146447 0.853553
vt 0.459594 0.560472
vt 0.222215 0.915735
vt 0.472168 0.567192
vt 0.308658 0.961940
s 1
f 32/1/32 35/2/32 66/3/1 1/4/1
f 1/4/1 66/3/1 65/5/2 2/6/2
f 2/6/2 65/5/2 64/7/3 3/8/3
f 3/8/3 64/7/3 63/9/4 4/10/4
f 4/10/4 63/9/4 62/11/5 5/12/5
f 5/12/5 62/11/5 61/13/6 6/14/6
f 6/14/6 61/13/6 60/15/7 7/16/7
f 7/16/7 60/15/7 59/17/8 8/18/8
f 8/18/8 59/17/8 58/19/9 9/20/9
f 9/20/9 58/19/9 57/21/10 10/22/10
f 10/22/10 57/21/10 56/23/11 11/24/11
f 11/24/11 56/23/11 55/25/12 12/26/12
f 12/26/12 55/25/12 54/27/13 13/28/13 34/29/34
f 13/28/13 54/27/13 53/30/14 14/31/14
f 14/31/14 53/30/14 52/32/15 15/33/15
f 15/33/15 52/32/15 51/34/16 16/35/16
f 16/35/16 51/34/16 50/36/17 17/37/17
f 17/37/17 50/36/17 49/38/18 18/39/18
f 18/39/18 49/38/18 48/40/19 19/41/19
f 19/41/19 48/40/19 47/42/20 20/43/20
f 20/43/20 47/42/20 46/44/21 21/45/21 33/46/33
f 21/45/21 46/44/21 45/47/22 22/48/22
f 22/48/22 45/47/22 44/49/23 23/50/23
f 23/50/23 44/49/23 43/51/24 24/52/24
f 24/52/24 43/51/24 42/53/25 25/54/25
f 25/54/25 42/53/25 41/55/26 26/56/26
f 26/56/26 41/55/26 40/57/27 27/58/27
f 27/58/27 40/57/27 39/59/28 28/60/28
f 28/60/28 39/59/28 38/61/29 29/62/29
f 29/62/29 38/61/29 37/63/30 30/64/30
f 30/64/30 37/63/30 36/65/31 31/66/31
f 31/66/31 36/65/31 35/2/32 32/1/32
