# Blender 4.3.0
# www.blender.org
mtllib blockTest.mtl
o Cube
v -1.003591 0.847847 0.865428
v -0.999209 0.865447 -0.854590
v 0.860460 -1.010160 0.878819
v 0.992633 0.862565 0.859702
v -0.780944 -1.039464 -0.025358
v -0.855583 -0.995219 0.882234
v -0.987524 -0.855318 -0.940776
v -0.863408 0.962559 0.197287
v -0.847603 1.018462 -0.858840
v -1.019567 0.801175 0.180181
v 0.856157 -0.997831 -0.863095
v 1.003245 -0.861445 0.894936
v 1.006158 0.858516 -0.001794
v 1.003182 0.843971 -0.833881
v -0.854082 -0.217756 1.060118
v -0.747687 0.325999 1.044875
v -0.868125 0.852135 1.002737
v -1.005651 0.038136 0.873744
v -0.876360 0.154639 -0.998388
v -1.019901 0.062446 -0.855590
v 1.048600 -0.206797 -0.831780
v 0.889998 0.029499 -0.964700
v 0.867425 0.860399 -0.999597
v 0.839688 0.132938 1.043286
v 0.868709 -0.851447 1.022850
v 0.977729 0.473352 0.878502
v -0.994408 -0.856924 0.860092
v -1.008956 -0.043523 0.184310
v -0.994320 0.492422 -0.334865
v -1.046863 0.027989 -0.511017
v -0.980940 -0.843781 -0.370451
v 1.013056 -0.840988 -0.839591
v 1.019484 0.314359 0.248364
v -0.045624 1.054770 -0.856971
v 0.866063 0.983343 -0.868741
v 0.286488 0.845793 -1.030178
v -0.850030 0.867092 -0.990984
v 0.165381 1.019714 0.849247
v 0.817264 0.878609 0.989768
v -0.837153 -0.965140 -0.883930
v 0.103454 -1.027588 -0.186274
v 0.416781 -1.000819 0.207009
v 0.128209 -1.016574 0.843451
v 0.144772 1.023726 -0.192798
v -0.405509 1.041993 -0.264907
v 0.823015 1.050589 -0.004892
v -0.106046 1.016917 0.474047
v -0.862685 0.997973 0.860242
v 0.867421 0.983987 0.857397
v -0.391636 -0.865958 -0.994758
v 0.812891 -0.846821 -1.028543
v -0.397670 -0.163986 -0.965240
v 0.150078 -0.301412 -0.997253
v 0.128022 0.175127 -1.003453
v 0.071014 0.530380 -1.095481
v -0.845252 -0.852541 1.020649
v 0.427001 -0.330087 1.078280
v -0.053469 -0.353478 1.030653
v 0.328151 0.172219 1.072286
v 0.378568 0.588000 0.996847
vn -0.6164 -0.5248 0.5870
vn -0.5915 0.5747 0.5656
vn -0.5685 0.5462 -0.6152
vn 0.5372 -0.5820 0.6105
vn 0.5274 0.5560 0.6425
vn 0.5995 -0.5069 -0.6194
vn 0.6764 0.5403 -0.5006
vn -0.7173 0.0393 -0.6957
vn 0.0177 0.7288 -0.6845
vn -0.0299 -0.6709 0.7410
vn 0.0097 -0.9997 -0.0203
vn 0.7235 0.6901 0.0160
vn -0.0981 0.9925 0.0734
vn -0.0521 0.9972 -0.0532
vn 0.9994 0.0316 0.0155
vn 0.9966 -0.0346 0.0748
vn 0.9997 0.0227 -0.0040
vn 0.9990 0.0432 0.0061
vn -0.9941 0.0885 0.0633
vn -0.9991 -0.0128 -0.0413
vn -0.9996 -0.0272 -0.0112
vn -0.9999 -0.0127 0.0063
vn 0.5966 0.0159 0.8024
vn 0.7431 0.0224 0.6688
vn 0.6657 0.0273 -0.7458
vn -0.6569 0.1492 0.7391
vn 0.0118 0.0716 -0.9974
vn 0.0487 -0.0107 -0.9988
vn -0.9923 -0.0890 -0.0865
vn -0.9993 0.0257 0.0279
vn 0.9998 0.0192 0.0059
vn 0.0004 0.1785 0.9839
vn 0.0402 0.0201 0.9990
vn 0.0584 0.0234 0.9980
vn -0.0983 -0.0075 0.9951
vn 0.0263 -0.0617 0.9978
vn -0.0013 -0.0180 0.9998
vn 0.0741 0.0076 -0.9972
vn -0.0440 -0.0442 -0.9981
vn -0.0623 -0.0159 -0.9979
vn 0.0972 0.0426 -0.9943
vn -0.0284 0.0228 -0.9993
vn 0.0035 0.9970 0.0768
vn -0.0198 -0.9987 0.0471
vn 0.0740 -0.9972 0.0089
vn -0.0023 -0.9963 -0.0861
vn -0.0185 -0.9978 -0.0644
vn -0.0004 -0.7349 0.6781
vn -0.0280 0.6576 -0.7528
vn -0.0071 -0.7395 -0.6731
vn -0.0295 0.2219 -0.9746
vn -0.0211 0.9997 0.0078
vn 0.1517 -0.2054 0.9669
vn 0.0568 -0.0615 0.9965
vn 0.0538 -0.0524 -0.9972
vn -0.0852 -0.5475 -0.8324
vn 0.7200 0.6938 -0.0164
vn -0.0104 -0.9999 -0.0071
vn -0.7227 0.6904 -0.0331
vn 0.6961 0.7179 0.0076
vn 0.7217 -0.6922 -0.0067
vn 0.7073 -0.7069 -0.0043
vn -0.7149 0.6987 0.0278
vn -0.6543 -0.7562 -0.0045
vn -0.6919 -0.7218 -0.0180
vn -0.9999 -0.0051 0.0145
vn -0.9988 -0.0443 -0.0224
vn -0.1208 0.9914 0.0507
vn 0.9922 -0.0884 0.0881
vn 0.9969 -0.0565 0.0542
vn -0.9966 -0.0677 0.0474
vn -0.6942 0.0255 -0.7193
vn 0.6892 0.0053 0.7245
vn 0.7733 -0.0056 -0.6340
vn -0.7667 -0.0323 0.6412
vn -0.6059 -0.0237 0.7952
vn 0.1625 0.2617 0.9514
vn 0.0430 -0.0408 -0.9982
vn -0.9993 -0.0364 0.0123
vn -0.9887 0.1360 -0.0638
vn 0.0310 0.9992 -0.0267
vn -0.0333 -0.0549 0.9979
vn 0.1040 -0.0176 0.9944
vn -0.0884 -0.1791 0.9799
vn -0.2075 -0.2764 -0.9384
vn 0.4783 -0.1475 -0.8657
vn -0.0479 0.0416 -0.9980
vn -0.0910 -0.0467 -0.9948
vn -0.0384 0.9993 -0.0042
vn 0.0303 0.9993 0.0216
vn 0.6628 -0.0139 -0.7487
vn -0.0060 0.6953 0.7187
vn 0.0281 0.9989 0.0386
vn -0.0452 0.9990 -0.0059
vn 0.0153 -0.9998 0.0103
vn 0.0586 -0.9981 0.0213
vn 0.0322 0.7760 0.6299
vn 0.0132 -0.6967 0.7172
vn -0.0153 0.6236 -0.7816
vn 0.0436 0.6777 -0.7340
vn -0.0058 -0.7335 -0.6797
vn 0.0513 0.9977 -0.0445
vn 0.0064 0.0813 0.9967
vt 0.142008 0.732497
vt 0.140519 0.750000
vt 0.125000 0.731569
vt 0.607114 0.000000
vt 0.625000 0.017359
vt 0.606521 0.017354
vt 0.625000 0.232608
vt 0.607641 0.250000
vt 0.608132 0.232287
vt 0.357641 0.733676
vt 0.375000 0.732641
vt 0.357119 0.750000
vt 0.625000 0.767107
vt 0.607641 0.772423
vt 0.607641 0.750000
vt 0.356396 0.518207
vt 0.353580 0.500000
vt 0.375000 0.517359
vt 0.625000 0.483793
vt 0.607641 0.500000
vt 0.607375 0.482641
vt 0.524840 0.267359
vt 0.392359 0.244852
vt 0.514435 0.232641
vt 0.606006 0.415139
vt 0.268181 0.729170
vt 0.305077 0.641081
vt 0.642088 0.732791
vt 0.595670 0.641343
vt 0.659523 0.618384
vt 0.857641 0.648062
vt 0.764693 0.678064
vt 0.798925 0.609359
vt 0.858038 0.732642
vt 0.607389 0.732775
vt 0.542669 0.650036
vt 0.556560 0.737633
vt 0.606554 0.518130
vt 0.462987 0.519660
vt 0.498655 0.098256
vt 0.561630 0.157569
vt 0.500000 0.181654
vt 0.605732 0.104072
vt 0.392829 0.018431
vt 0.420706 0.154026
vt 0.515886 0.018772
vt 0.518353 0.767359
vt 0.393439 0.733133
vt 0.492990 0.482641
vt 0.535880 0.000000
vt 0.492581 0.000000
vt 0.464725 0.377446
vt 0.395243 0.476138
vt 0.537381 0.382678
vt 0.393507 0.520067
vt 0.532683 0.827277
vt 0.571761 0.823472
vt 0.538497 0.972825
vt 0.491878 0.978509
vt 0.460531 0.875545
vt 0.463384 0.825395
vt 0.392369 0.984480
vt 0.397444 0.767911
vt 0.607440 0.267242
vt 0.479252 0.331669
vt 0.394189 0.324170
vt 0.169571 0.596243
vt 0.266832 0.595240
vt 0.144469 0.516905
vt 0.625000 0.376526
vt 0.625000 0.268481
vt 0.199052 0.500000
vt 0.571760 0.375000
vt 0.726783 0.732641
vt 0.131580 0.511727
vt 0.641207 0.517365
vt 0.625000 0.101938
vt 0.125000 0.618248
vt 0.856519 0.517391
vt 0.392369 0.000000
vt 0.730236 0.605516
vt 0.748474 0.517473
vt 0.625000 0.851783
vt 0.625000 0.983038
vt 0.607114 0.982620
s 0
f 6/1/1 56/2/1 27/3/1
f 17/4/2 48/5/2 1/6/2
f 9/7/3 37/8/3 2/9/3
f 3/10/4 12/11/4 25/12/4
f 49/13/5 39/14/5 4/15/5
f 11/16/6 51/17/6 32/18/6
f 35/19/7 14/20/7 23/21/7
f 19/22/8 7/23/8 20/24/8
f 35/19/9 23/21/9 36/25/9
f 3/10/10 25/12/10 43/26/10
f 3/10/11 43/26/11 42/27/11
f 49/28/12 13/29/12 46/30/12
f 8/31/13 47/32/13 45/33/13
f 8/31/14 48/34/14 47/32/14
f 13/29/15 4/35/15 33/36/15
f 33/36/16 4/35/16 26/37/16
f 14/38/17 13/29/17 33/36/17
f 14/38/18 33/36/18 21/39/18
f 28/40/19 29/41/19 30/42/19
f 10/43/20 29/41/20 28/40/20
f 27/44/21 28/40/21 31/45/21
f 18/46/22 28/40/22 27/44/22
f 26/37/23 4/35/23 39/14/23
f 24/47/24 12/48/24 26/37/24
f 21/39/25 22/49/25 14/38/25
f 16/50/26 18/46/26 15/51/26
f 53/52/27 22/49/27 51/53/27
f 54/54/28 22/49/28 53/52/28
f 30/42/29 20/24/29 31/45/29
f 29/41/30 2/9/30 20/24/30
f 26/37/31 12/48/31 32/55/31
f 59/56/32 60/57/32 16/58/32
f 16/58/33 15/59/33 58/60/33
f 24/47/34 59/56/34 57/61/34
f 59/56/35 58/60/35 57/61/35
f 15/59/36 56/62/36 58/60/36
f 25/63/37 58/60/37 56/62/37
f 37/64/38 52/65/38 19/22/38
f 37/64/39 54/54/39 52/65/39
f 54/54/40 53/52/40 52/65/40
f 19/22/41 52/65/41 50/66/41
f 50/66/42 53/52/42 51/53/42
f 47/32/43 49/28/43 46/30/43
f 5/67/44 43/26/44 6/1/44
f 41/68/45 42/27/45 43/26/45
f 41/68/46 5/67/46 40/69/46
f 11/16/47 41/68/47 40/69/47
f 43/26/48 25/12/48 56/2/48
f 34/70/49 37/64/49 9/71/49
f 11/16/50 50/72/50 51/17/50
f 37/64/51 36/25/51 55/73/51
f 48/34/52 38/74/52 47/32/52
f 26/37/53 39/14/53 60/57/53
f 60/57/54 39/14/54 16/58/54
f 54/54/55 36/25/55 23/21/55
f 40/69/56 7/75/56 50/72/56
f 13/29/57 14/38/57 35/76/57 46/30/57
f 42/27/58 11/16/58 3/10/58
f 1/6/59 48/5/59 8/77/59 10/43/59
f 49/28/60 4/35/60 13/29/60
f 3/10/61 11/16/61 12/48/61
f 11/16/62 32/55/62 12/48/62
f 2/9/63 10/43/63 8/77/63 9/7/63
f 31/78/64 7/75/64 40/69/64 5/67/64
f 31/78/65 5/67/65 6/1/65 27/3/65
f 28/40/66 18/46/66 1/6/66 10/43/66
f 29/41/67 10/43/67 2/9/67
f 9/79/68 8/31/68 45/33/68
f 33/36/69 26/37/69 32/55/69
f 21/39/70 33/36/70 32/55/70
f 28/40/71 30/42/71 31/45/71
f 2/9/72 37/64/72 19/22/72 20/24/72
f 24/47/73 25/63/73 12/48/73
f 14/38/74 22/49/74 23/21/74
f 27/44/75 56/80/75 15/51/75 18/46/75
f 18/46/76 16/50/76 17/4/76 1/6/76
f 60/57/77 59/56/77 24/47/77 26/37/77
f 54/54/78 23/21/78 22/49/78
f 7/23/79 31/45/79 20/24/79
f 30/42/80 29/41/80 20/24/80
f 44/81/81 46/30/81 35/76/81 34/82/81
f 59/56/82 16/58/82 58/60/82
f 25/63/83 24/47/83 57/61/83
f 25/63/84 57/61/84 58/60/84
f 37/64/85 55/73/85 54/54/85
f 55/73/86 36/25/86 54/54/86
f 50/66/87 52/65/87 53/52/87
f 7/23/88 19/22/88 50/66/88
f 44/81/89 47/32/89 46/30/89
f 44/81/90 45/33/90 47/32/90
f 22/49/91 21/39/91 32/55/91 51/53/91
f 39/14/92 38/83/92 48/84/92 17/85/92
f 44/81/93 34/82/93 45/33/93
f 9/79/94 45/33/94 34/82/94
f 5/67/95 41/68/95 43/26/95
f 41/68/96 11/16/96 42/27/96
f 49/13/97 38/83/97 39/14/97
f 6/1/98 43/26/98 56/2/98
f 34/70/99 36/25/99 37/64/99
f 34/70/100 35/19/100 36/25/100
f 11/16/101 40/69/101 50/72/101
f 49/28/102 47/32/102 38/74/102
f 16/58/103 39/14/103 17/85/103
