# Blender 4.3.0
# www.blender.org
mtllib basic.mtl
o Circle
v -0.065582 0.075728 -0.962136
v 0.065582 0.075728 -0.962136
v 0.000000 0.000000 -0.912557
v -0.800443 0.075728 -0.537864
v -0.790297 0.000000 -0.456278
v -0.866025 0.075728 -0.424272
v -0.866025 0.075728 0.424272
v -0.790297 0.000000 0.456278
v -0.800443 0.075728 0.537864
v -0.065582 0.075728 0.962136
v 0.000000 0.000000 0.912557
v 0.065582 0.075728 0.962136
v 0.800443 0.075728 0.537864
v 0.790297 0.000000 0.456278
v 0.866025 0.075728 0.424272
v 0.866025 0.075728 -0.424272
v 0.790297 0.000000 -0.456278
v 0.800443 0.075728 -0.537864
v -0.065582 0.931514 -0.962136
v 0.000000 1.007242 -0.912557
v 0.065582 0.931514 -0.962136
v -0.800443 0.931514 -0.537864
v -0.866025 0.931514 -0.424272
v -0.790297 1.007242 -0.456278
v -0.866025 0.931514 0.424272
v -0.800443 0.931514 0.537864
v -0.790297 1.007242 0.456278
v -0.065582 0.931514 0.962136
v 0.065582 0.931514 0.962136
v 0.000000 1.007242 0.912557
v 0.800443 0.931514 0.537864
v 0.866025 0.931514 0.424272
v 0.790297 1.007242 0.456278
v 0.866025 0.931514 -0.424272
v 0.800443 0.931514 -0.537864
v 0.790297 1.007242 -0.456278
vn 0.5000 -0.0000 -0.8660
vn -0.0000 -1.0000 -0.0000
vn -1.0000 -0.0000 -0.0000
vn 1.0000 -0.0000 -0.0000
vn -0.5000 -0.0000 0.8660
vn -0.0000 1.0000 -0.0000
vn 0.5000 -0.0000 0.8660
vn -0.0000 -0.5477 -0.8366
vn -0.7246 -0.5478 -0.4183
vn -0.7246 -0.5478 0.4183
vn -0.0000 -0.5477 0.8366
vn 0.7246 -0.5478 0.4183
vn 0.7246 -0.5478 -0.4183
vn -0.0000 0.5477 -0.8366
vn -0.7246 0.5478 -0.4183
vn -0.7246 0.5478 0.4183
vn -0.0000 0.5477 0.8366
vn 0.7246 0.5478 0.4183
vn 0.7246 0.5478 -0.4183
vn -0.3536 -0.7071 -0.6124
vn -0.7071 -0.7071 -0.0000
vn -0.3536 -0.7071 0.6124
vn 0.3536 -0.7071 0.6124
vn 0.7071 -0.7071 -0.0000
vn 0.3536 -0.7071 -0.6124
vn -0.3536 0.7071 -0.6124
vn -0.7071 0.7071 -0.0000
vn -0.3536 0.7071 0.6124
vn 0.3536 0.7071 0.6124
vn 0.7071 0.7071 -0.0000
vn 0.3536 0.7071 -0.6124
vn -0.8660 -0.0000 -0.5000
vn -0.0000 -0.0000 -1.0000
vn 0.8660 -0.0000 -0.5000
vn 0.8660 -0.0000 0.5000
vn -0.0000 -0.0000 1.0000
vn -0.8660 -0.0000 0.5000
vn -0.5000 -0.0000 -0.8660
vt 0.325882 0.292024
vt 0.323246 0.293941
vt 0.320177 0.291655
vt 0.323011 0.293717
vt 0.325845 0.291655
vt 0.325845 0.287531
vt 0.323011 0.285470
vt 0.320177 0.287531
vt 0.319905 0.291510
vt 0.319905 0.287676
vt 0.326117 0.287676
vt 0.326117 0.291510
vt 0.320140 0.287163
vt 0.322776 0.285245
vt 0.323246 0.285245
vt 0.325882 0.287163
vt 0.322776 0.293941
vt 0.320140 0.292024
s 0
usemtl Material.001
f 18/1/1 2/2/1 21/2/1 35/1/1
f 5/3/2 3/4/2 17/5/2 14/6/2 11/7/2 8/8/2
f 6/9/3 7/10/3 25/10/3 23/9/3
f 15/11/4 16/12/4 34/12/4 32/11/4
f 9/13/5 10/14/5 28/14/5 26/13/5
f 24/3/6 27/8/6 30/7/6 33/6/6 36/5/6 20/4/6
f 12/15/7 13/16/7 31/16/7 29/15/7
f 1/17/8 2/2/8 3/4/8
f 4/18/9 5/3/9 6/9/9
f 7/10/10 8/8/10 9/13/10
f 10/14/11 11/7/11 12/15/11
f 13/16/12 14/6/12 15/11/12
f 16/12/13 17/5/13 18/1/13
f 19/17/14 20/4/14 21/2/14
f 22/18/15 23/9/15 24/3/15
f 25/10/16 26/13/16 27/8/16
f 28/14/17 29/15/17 30/7/17
f 31/16/18 32/11/18 33/6/18
f 34/12/19 35/1/19 36/5/19
f 4/18/20 1/17/20 3/4/20 5/3/20
f 7/10/21 6/9/21 5/3/21 8/8/21
f 10/14/22 9/13/22 8/8/22 11/7/22
f 13/16/23 12/15/23 11/7/23 14/6/23
f 16/12/24 15/11/24 14/6/24 17/5/24
f 2/2/25 18/1/25 17/5/25 3/4/25
f 24/3/26 20/4/26 19/17/26 22/18/26
f 27/8/27 24/3/27 23/9/27 25/10/27
f 30/7/28 27/8/28 26/13/28 28/14/28
f 33/6/29 30/7/29 29/15/29 31/16/29
f 36/5/30 33/6/30 32/11/30 34/12/30
f 20/4/31 36/5/31 35/1/31 21/2/31
f 6/9/32 23/9/32 22/18/32 4/18/32
f 21/2/33 2/2/33 1/17/33 19/17/33
f 34/12/34 16/12/34 18/1/34 35/1/34
f 15/11/35 32/11/35 31/16/35 13/16/35
f 28/14/36 10/14/36 12/15/36 29/15/36
f 9/13/37 26/13/37 25/10/37 7/10/37
f 1/17/38 4/18/38 22/18/38 19/17/38
